<svg xmlns="http://www.w3.org/2000/svg" viewBox="0 0 256 83" fill="currentColor">
  <rect width="256" height="83" rx="8" fill="#003087"/>
  <g transform="translate(20, 15)">
    <!-- PayPal P -->
    <path d="M20 10 h25 c8 0 15 3 15 12 c0 9 -7 12 -15 12 h-15 l-5 15 h-10 z M30 20 h15 c3 0 5 -1 5 -3 c0 -2 -2 -3 -5 -3 h-15 z" fill="#009CDE"/>
    <path d="M70 10 h25 c8 0 15 3 15 12 c0 9 -7 12 -15 12 h-15 l-5 15 h-10 z M80 20 h15 c3 0 5 -1 5 -3 c0 -2 -2 -3 -5 -3 h-15 z" fill="#012169"/>
  </g>
  <text x="128" y="65" text-anchor="middle" fill="white" font-family="Arial, sans-serif" font-size="14" font-weight="bold">PayPal</text>
</svg>