<svg xmlns="http://www.w3.org/2000/svg" viewBox="0 0 256 83" fill="currentColor">
  <rect width="256" height="83" rx="8" fill="#1A1F71"/>
  <path d="M132.397 56.24c-.146-11.516 10.263-17.942 18.104-21.763 8.056-3.92 10.762-6.434 10.73-9.94-.06-5.365-6.426-7.733-12.383-7.825-10.393-.161-16.436 2.806-21.24 5.05l-3.744-17.519c4.82-2.221 13.745-4.158 23-4.243 21.725 0 35.938 10.724 36.015 27.351.085 21.102-29.188 22.27-28.988 31.702.069 2.86 2.798 5.912 8.778 6.688 2.96.392 11.131.692 20.395-3.574l3.636 16.95c-4.982 1.814-11.385 3.551-19.357 3.551-20.448 0-34.83-10.87-34.946-26.428m89.241 24.968c-3.967 0-7.31-2.314-8.802-5.865L181.803 1.245h21.709l4.32 11.939h26.528l2.506-11.939H256l-16.697 79.963h-17.665zM213.05 47.116l10.833-28.458 6.17 28.458h-17.003zm-118.65 9.079h-9.785l-21.291 44.134h21.599l3.784-9.424h23.313l2.506 9.424H135.25L118.4 56.195zm-18.108 0l-8.893 21.682h14.104l-5.211-21.682zm-19.097 35.663c-2.232-8.968-9.135-15.317-17.358-17.358L17.248 1.245H0l33.116 79.963h21.599l32.69-79.963H66.806l-21.761 55.55z" fill="white"/>
</svg>